<?xml version="1.0" encoding="UTF-8"?>
<svg id="Layer_2" data-name="Layer 2" xmlns="http://www.w3.org/2000/svg" xmlns:xlink="http://www.w3.org/1999/xlink" viewBox="0 0 10.71 33.55">
  <defs>
    <style>
      .cls-1 {
        fill: url(#linear-gradient-2);
      }

      .cls-2 {
        fill: url(#linear-gradient);
      }
    </style>
    <linearGradient id="linear-gradient" x1="5.35" y1="33.55" x2="5.35" y2="2.62" gradientUnits="userSpaceOnUse">
      <stop offset="0" stop-color="#002c0f"/>
      <stop offset="0" stop-color="#00330f"/>
      <stop offset=".19" stop-color="#00350f"/>
      <stop offset=".4" stop-color="#00570f"/>
      <stop offset=".91" stop-color="#00d90f"/>
    </linearGradient>
    <linearGradient id="linear-gradient-2" x1="191.7" y1="6.09" x2="182.86" y2="-11.6" gradientTransform="translate(195.55) rotate(-180) scale(1 -1)" gradientUnits="userSpaceOnUse">
      <stop offset="0" stop-color="#00480f"/>
      <stop offset=".46" stop-color="#00610f"/>
      <stop offset=".69" stop-color="#009a0f"/>
    </linearGradient>
  </defs>
  <g id="OBJECTS">
    <g>
      <path class="cls-2" d="m10.68,2.62v27.58c.03.17.03.35,0,.52h0s0,.01,0,.01c-.11.7-.62,1.38-1.55,1.91-2.09,1.21-5.48,1.21-7.57,0-.92-.53-1.44-1.21-1.55-1.91H0V2.62h10.68Z"/>
      <path class="cls-1" d="m9.14,5.28c-2.09,1.21-5.48,1.21-7.57,0S-.52,2.11,1.57.91,7.05-.3,9.14.91s2.09,3.16,0,4.37Z"/>
    </g>
  </g>
</svg>