<?xml version="1.0" encoding="UTF-8"?>
<svg id="Layer_2" data-name="Layer 2" xmlns="http://www.w3.org/2000/svg" xmlns:xlink="http://www.w3.org/1999/xlink" viewBox="0 0 37.93 46.56">
  <defs>
    <style>
      .cls-1 {
        fill: #fff;
      }

      .cls-2 {
        fill: url(#radial-gradient);
      }

      .cls-3 {
        fill: url(#linear-gradient);
      }

      .cls-4 {
        fill: url(#radial-gradient-2);
        stroke: #006d00;
        stroke-miterlimit: 10;
        stroke-width: .69px;
      }
    </style>
    <linearGradient id="linear-gradient" x1="59.49" y1="10.38" x2="19.91" y2="22.94" gradientUnits="userSpaceOnUse">
      <stop offset=".09" stop-color="#00ea0f"/>
      <stop offset=".97" stop-color="#00450f"/>
    </linearGradient>
    <radialGradient id="radial-gradient" cx="13.08" cy="442.43" fx="13.08" fy="442.43" r="18.33" gradientTransform="translate(265.87 -429.11) rotate(60) skewX(30)" gradientUnits="userSpaceOnUse">
      <stop offset=".12" stop-color="#00ac0f"/>
      <stop offset=".97" stop-color="#00960f"/>
    </radialGradient>
    <radialGradient id="radial-gradient-2" cx="16.92" cy="24.62" fx="35.51" fy="15.02" r="20.92" gradientTransform="translate(30.58 7.21) rotate(88) scale(1 .58)" gradientUnits="userSpaceOnUse">
      <stop offset="0" stop-color="#008700"/>
      <stop offset=".94" stop-color="#00ac0f"/>
      <stop offset="1" stop-color="#00580f"/>
    </radialGradient>
  </defs>
  <g id="OBJECTS">
    <g>
      <path class="cls-3" d="m37.93,31.71c0,4.55-1.34,7.96-3.59,9.99-.71.64-4.97,3.63-5.84,3.98-2.96,1.2-3.34-1.75-7.53-4.17C11.58,36.1,3.98,22.94,3.98,12.12c0-4.13-2.73-4.74-.84-6.81.49-.54,4.87-3.58,5.47-3.96,3.09-2,7.48-1.84,12.35.97,9.37,5.41,16.97,18.57,16.97,29.4Z"/>
      <ellipse class="cls-2" cx="16.97" cy="24.64" rx="13.86" ry="24" transform="translate(-10.05 11.79) rotate(-30)"/>
      <ellipse class="cls-4" cx="16.92" cy="24.62" rx="12.26" ry="21.23" transform="translate(-10.04 11.76) rotate(-30)"/>
      <path class="cls-1" d="m21.6,19.66v-3.47l-2.75-1.59v3.18l-2.75-1.59v-3.18l-2.75-1.59v3.18l-2.75-1.59v15.89l2.75,1.59v3.18l2.75,1.59v-3.18l2.75,1.59v3.18l2.75,1.59v-3.47c1.3.23,2.29-.44,2.63-1.79.34-1.35-.02-3.19-.95-4.9.93-.64,1.29-2.06.95-3.8-.34-1.74-1.33-3.55-2.63-4.82Zm-8.26-1.88l6.88,3.97c.76.44,1.38,1.51,1.38,2.38s-.62,1.23-1.38.79l-6.88-3.97v-3.18Zm6.88,13.51l-6.88-3.97v-3.18l6.88,3.97c.76.44,1.38,1.51,1.38,2.38s-.62,1.23-1.38.79Z"/>
    </g>
  </g>
</svg>