<?xml version="1.0" encoding="UTF-8"?>
<svg id="Layer_2" data-name="Layer 2" xmlns="http://www.w3.org/2000/svg" viewBox="0 0 132.52 60.08">
  <defs>
    <style>
      .cls-1 {
        fill: none;
        stroke-width: .53px;
      }

      .cls-1, .cls-2 {
        stroke: #00c71e;
        stroke-miterlimit: 10;
      }

      .cls-3 {
        opacity: .7;
      }

      .cls-2 {
        fill: #fff;
      }
    </style>
  </defs>
  <g id="OBJECTS">
    <g class="cls-3">
      <g>
        <g>
          <polyline class="cls-1" points="130.46 19.69 103.56 4.15 75.98 1.31 54.16 13.91 34.82 13.14 18.06 3.46"/>
          <polyline class="cls-1" points="76.8 7.02 55.61 19.25 32.91 18.34 3.85 1.57"/>
          <path class="cls-2" d="m16.79,4c.61.35,1.59.35,2.2,0,.61-.35.61-.92,0-1.27s-1.59-.35-2.2,0c-.61.35-.61.92,0,1.27Z"/>
          <path class="cls-2" d="m2.58,2.1c.61.35,1.59.35,2.2,0,.61-.35.61-.92,0-1.27-.61-.35-1.59-.35-2.2,0-.61.35-.61.92,0,1.27Z"/>
          <path class="cls-2" d="m31.72,18.93c.61.35,1.59.35,2.2,0,.61-.35.61-.92,0-1.27-.61-.35-1.59-.35-2.2,0-.61.35-.61.92,0,1.27Z"/>
          <path class="cls-2" d="m33.72,13.77c.61.35,1.59.35,2.2,0,.61-.35.61-.92,0-1.27-.61-.35-1.59-.35-2.2,0-.61.35-.61.92,0,1.27Z"/>
          <path class="cls-2" d="m74.95,2.03c.61.35,1.59.35,2.2,0,.61-.35.61-.92,0-1.27-.61-.35-1.59-.35-2.2,0-.61.35-.61.92,0,1.27Z"/>
          <path class="cls-2" d="m75.7,7.65c.61.35,1.59.35,2.2,0,.61-.35.61-.92,0-1.27-.61-.35-1.59-.35-2.2,0-.61.35-.61.92,0,1.27Z"/>
          <path class="cls-2" d="m129.36,20.32c.61.35,1.59.35,2.2,0,.61-.35.61-.92,0-1.27-.61-.35-1.59-.35-2.2,0-.61.35-.61.92,0,1.27Z"/>
        </g>
        <g>
          <polyline class="cls-1" points="2.06 58.68 28.96 43.15 56.54 40.3 78.36 52.9"/>
          <line class="cls-1" x1="55.71" y1="46.01" x2="76.91" y2="58.25"/>
          <path class="cls-2" d="m57.57,41.02c-.61.35-1.59.35-2.2,0-.61-.35-.61-.92,0-1.27.61-.35,1.59-.35,2.2,0,.61.35.61.92,0,1.27Z"/>
          <path class="cls-2" d="m56.81,46.64c-.61.35-1.59.35-2.2,0-.61-.35-.61-.92,0-1.27.61-.35,1.59-.35,2.2,0,.61.35.61.92,0,1.27Z"/>
          <path class="cls-2" d="m3.16,59.32c-.61.35-1.59.35-2.2,0-.61-.35-.61-.92,0-1.27.61-.35,1.59-.35,2.2,0,.61.35.61.92,0,1.27Z"/>
        </g>
      </g>
    </g>
  </g>
</svg>