<?xml version="1.0" encoding="UTF-8"?>
<svg id="Layer_2" data-name="Layer 2" xmlns="http://www.w3.org/2000/svg" xmlns:xlink="http://www.w3.org/1999/xlink" viewBox="0 0 71.12 51.73">
  <defs>
    <style>
      .cls-1 {
        stroke: #00d11e;
        stroke-miterlimit: 10;
        stroke-width: 1.19px;
      }

      .cls-1, .cls-2 {
        fill: none;
      }

      .cls-3 {
        fill: url(#linear-gradient-2);
      }

      .cls-4 {
        fill: #fff;
      }

      .cls-5 {
        fill: url(#linear-gradient-17);
      }

      .cls-6 {
        fill: url(#linear-gradient-15);
      }

      .cls-7 {
        fill: url(#linear-gradient-18);
      }

      .cls-8 {
        fill: url(#linear-gradient-14);
      }

      .cls-9 {
        fill: url(#linear-gradient-6);
      }

      .cls-10 {
        fill: url(#linear-gradient-11);
      }

      .cls-11 {
        fill: url(#linear-gradient-10);
      }

      .cls-12 {
        fill: url(#radial-gradient);
      }

      .cls-13 {
        fill: url(#linear-gradient-16);
      }

      .cls-14 {
        fill: url(#linear-gradient-5);
      }

      .cls-15 {
        clip-path: url(#clippath);
      }

      .cls-16 {
        fill: url(#linear-gradient-7);
      }

      .cls-17 {
        fill: url(#linear-gradient-9);
      }

      .cls-18 {
        fill: url(#linear-gradient-3);
      }

      .cls-19 {
        fill: url(#linear-gradient);
      }

      .cls-20 {
        fill: url(#linear-gradient-4);
      }

      .cls-21 {
        fill: url(#linear-gradient-8);
      }

      .cls-22 {
        fill: url(#linear-gradient-12);
      }

      .cls-23 {
        fill: url(#linear-gradient-13);
      }
    </style>
    <linearGradient id="linear-gradient" x1="32.07" y1="33.37" x2="52.89" y2="-9.31" gradientUnits="userSpaceOnUse">
      <stop offset=".09" stop-color="#00a50f"/>
      <stop offset=".89" stop-color="#004a0f"/>
    </linearGradient>
    <clipPath id="clippath">
      <path class="cls-2" d="m0,19.57l71.12-3.19v13.65h0c0,5.25-3.47,10.51-10.41,14.52-13.89,8.02-36.4,8.02-50.29,0C3.47,40.54,0,35.28,0,30.03H0v-10.46Z"/>
    </clipPath>
    <linearGradient id="linear-gradient-2" x1="3.45" y1="35.03" x2="2.26" y2="35.03" gradientUnits="userSpaceOnUse">
      <stop offset=".09" stop-color="#00a50f"/>
      <stop offset=".97" stop-color="#004a0f"/>
    </linearGradient>
    <linearGradient id="linear-gradient-3" x1="7.54" x2="6.35" xlink:href="#linear-gradient-2"/>
    <linearGradient id="linear-gradient-4" x1="11.63" x2="10.44" xlink:href="#linear-gradient-2"/>
    <linearGradient id="linear-gradient-5" x1="15.71" x2="14.53" xlink:href="#linear-gradient-2"/>
    <linearGradient id="linear-gradient-6" x1="19.8" x2="18.61" xlink:href="#linear-gradient-2"/>
    <linearGradient id="linear-gradient-7" x1="23.89" x2="22.7" xlink:href="#linear-gradient-2"/>
    <linearGradient id="linear-gradient-8" x1="27.98" x2="26.79" xlink:href="#linear-gradient-2"/>
    <linearGradient id="linear-gradient-9" x1="32.06" x2="30.88" xlink:href="#linear-gradient-2"/>
    <linearGradient id="linear-gradient-10" x1="36.15" x2="34.97" xlink:href="#linear-gradient-2"/>
    <linearGradient id="linear-gradient-11" x1="40.24" x2="39.05" xlink:href="#linear-gradient-2"/>
    <linearGradient id="linear-gradient-12" x1="44.33" x2="43.14" xlink:href="#linear-gradient-2"/>
    <linearGradient id="linear-gradient-13" x1="48.42" x2="47.23" xlink:href="#linear-gradient-2"/>
    <linearGradient id="linear-gradient-14" x1="52.5" x2="51.32" xlink:href="#linear-gradient-2"/>
    <linearGradient id="linear-gradient-15" x1="56.59" x2="55.41" xlink:href="#linear-gradient-2"/>
    <linearGradient id="linear-gradient-16" x1="60.68" x2="59.49" xlink:href="#linear-gradient-2"/>
    <linearGradient id="linear-gradient-17" x1="64.77" x2="63.58" xlink:href="#linear-gradient-2"/>
    <linearGradient id="linear-gradient-18" x1="68.86" x2="67.67" xlink:href="#linear-gradient-2"/>
    <radialGradient id="radial-gradient" cx="35.73" cy="20.22" fx="35.73" fy="20.22" r="38.8" gradientTransform="translate(71.46 31.34) rotate(-180) scale(1 .55)" gradientUnits="userSpaceOnUse">
      <stop offset=".2" stop-color="#007f0f"/>
      <stop offset=".76" stop-color="#00a70f"/>
      <stop offset=".86" stop-color="#007e0f"/>
      <stop offset="1" stop-color="#004b0f"/>
    </radialGradient>
  </defs>
  <g id="OBJECTS">
    <g>
      <g>
        <path class="cls-19" d="m0,19.57l71.12.59v9.87h0c0,5.25-3.47,10.51-10.41,14.52-13.89,8.02-36.4,8.02-50.29,0C3.47,40.54,0,35.28,0,30.03H0v-10.46Z"/>
        <g class="cls-15">
          <g>
            <rect class="cls-3" x="2.26" y="18.32" width="1.19" height="33.41"/>
            <rect class="cls-18" x="6.35" y="18.32" width="1.19" height="33.41"/>
            <rect class="cls-20" x="10.44" y="18.32" width="1.19" height="33.41"/>
            <rect class="cls-14" x="14.53" y="18.32" width="1.19" height="33.41"/>
            <rect class="cls-9" x="18.61" y="18.32" width="1.19" height="33.41"/>
            <rect class="cls-16" x="22.7" y="18.32" width="1.19" height="33.41"/>
            <rect class="cls-21" x="26.79" y="18.32" width="1.19" height="33.41"/>
            <rect class="cls-17" x="30.88" y="18.32" width="1.19" height="33.41"/>
            <rect class="cls-11" x="34.97" y="18.32" width="1.19" height="33.41"/>
            <rect class="cls-10" x="39.05" y="18.32" width="1.19" height="33.41"/>
            <rect class="cls-22" x="43.14" y="18.32" width="1.19" height="33.41"/>
            <rect class="cls-23" x="47.23" y="18.32" width="1.19" height="33.41"/>
            <rect class="cls-8" x="51.32" y="18.32" width="1.19" height="33.41"/>
            <rect class="cls-6" x="55.41" y="18.32" width="1.19" height="33.41"/>
            <rect class="cls-13" x="59.49" y="18.32" width="1.19" height="33.41"/>
            <rect class="cls-5" x="63.58" y="18.32" width="1.19" height="33.41"/>
            <rect class="cls-7" x="67.67" y="18.32" width="1.19" height="33.41"/>
          </g>
        </g>
        <path class="cls-12" d="m60.7,35.05c-13.89,8.02-36.4,8.02-50.29,0C-3.47,27.03-3.47,14.03,10.42,6.01c13.89-8.02,36.4-8.02,50.29,0,13.89,8.02,13.89,21.02,0,29.03Z"/>
        <path class="cls-1" d="m57.52,32.25c-12.13,7-31.79,7-43.92,0C1.47,25.25,1.47,13.9,13.6,6.89,25.73-.11,45.39-.11,57.52,6.89c12.13,7,12.13,18.36,0,25.36Z"/>
      </g>
      <path class="cls-4" d="m31.82,8.44l-4.49-2.59-4.11,2.38,4.11,2.38-4.11,2.38-4.11-2.38-4.11,2.38,4.11,2.38-4.11,2.38,20.57,11.88,4.11-2.38,4.11,2.38,4.11-2.38-4.11-2.38,4.11-2.38,4.11,2.38,4.11-2.38-4.49-2.59c1.27-1.51,1.14-3.29-.35-4.74-1.49-1.44-4.14-2.36-7.05-2.43-.13-1.68-1.71-3.21-4.21-4.07-2.5-.86-5.59-.94-8.2-.2Zm-8.61,9.28l10.29-5.94c1.14-.66,2.98-.66,4.11,0,1.14.66,1.14,1.72,0,2.38l-10.29,5.94-4.11-2.38Zm22.63,1.19l-10.29,5.94-4.11-2.38,10.29-5.94c1.14-.66,2.98-.66,4.11,0,1.14.66,1.14,1.72,0,2.38Z"/>
    </g>
  </g>
</svg>