<?xml version="1.0" encoding="UTF-8"?>
<svg id="Layer_2" data-name="Layer 2" xmlns="http://www.w3.org/2000/svg" viewBox="0 0 227.54 58.93">
  <defs>
    <style>
      .cls-1 {
        fill: none;
        stroke-width: .53px;
      }

      .cls-1, .cls-2 {
        stroke: #00c71e;
        stroke-miterlimit: 10;
      }

      .cls-3 {
        opacity: .7;
      }

      .cls-2 {
        fill: #fff;
      }
    </style>
  </defs>
  <g id="OBJECTS">
    <g class="cls-3">
      <g>
        <g>
          <polyline class="cls-1" points="53.97 23.23 80.87 38.76 108.45 41.6 130.27 29 149.61 29.78 166.37 39.46"/>
          <polyline class="cls-1" points="107.63 35.9 128.82 23.66 151.52 24.57 180.58 41.35"/>
          <path class="cls-2" d="m167.64,38.92c-.61-.35-1.59-.35-2.2,0-.61.35-.61.92,0,1.27.61.35,1.59.35,2.2,0,.61-.35.61-.92,0-1.27Z"/>
          <path class="cls-2" d="m181.85,40.81c-.61-.35-1.59-.35-2.2,0-.61.35-.61.92,0,1.27.61.35,1.59.35,2.2,0,.61-.35.61-.92,0-1.27Z"/>
          <path class="cls-2" d="m152.71,23.99c-.61-.35-1.59-.35-2.2,0-.61.35-.61.92,0,1.27.61.35,1.59.35,2.2,0,.61-.35.61-.92,0-1.27Z"/>
          <path class="cls-2" d="m150.71,29.15c-.61-.35-1.59-.35-2.2,0-.61.35-.61.92,0,1.27.61.35,1.59.35,2.2,0,.61-.35.61-.92,0-1.27Z"/>
          <path class="cls-2" d="m109.48,40.88c-.61-.35-1.59-.35-2.2,0-.61.35-.61.92,0,1.27.61.35,1.59.35,2.2,0,.61-.35.61-.92,0-1.27Z"/>
          <path class="cls-2" d="m108.73,35.27c-.61-.35-1.59-.35-2.2,0-.61.35-.61.92,0,1.27.61.35,1.59.35,2.2,0,.61-.35.61-.92,0-1.27Z"/>
          <path class="cls-2" d="m55.07,22.59c-.61-.35-1.59-.35-2.2,0-.61.35-.61.92,0,1.27.61.35,1.59.35,2.2,0,.61-.35.61-.92,0-1.27Z"/>
        </g>
        <g>
          <polyline class="cls-1" points="225.48 1.4 198.57 16.93 171 19.77 149.18 7.17 129.84 7.95 113.08 17.63"/>
          <polyline class="cls-1" points="171.82 14.07 150.62 1.83 127.93 2.75 98.87 19.52"/>
          <path class="cls-2" d="m111.81,17.09c.61-.35,1.59-.35,2.2,0,.61.35.61.92,0,1.27-.61.35-1.59.35-2.2,0-.61-.35-.61-.92,0-1.27Z"/>
          <path class="cls-2" d="m97.6,18.98c.61-.35,1.59-.35,2.2,0,.61.35.61.92,0,1.27-.61.35-1.59.35-2.2,0-.61-.35-.61-.92,0-1.27Z"/>
          <path class="cls-2" d="m126.74,2.16c.61-.35,1.59-.35,2.2,0,.61.35.61.92,0,1.27-.61.35-1.59.35-2.2,0-.61-.35-.61-.92,0-1.27Z"/>
          <path class="cls-2" d="m128.74,7.32c.61-.35,1.59-.35,2.2,0,.61.35.61.92,0,1.27-.61.35-1.59.35-2.2,0-.61-.35-.61-.92,0-1.27Z"/>
          <path class="cls-2" d="m169.97,19.05c.61-.35,1.59-.35,2.2,0,.61.35.61.92,0,1.27-.61.35-1.59.35-2.2,0-.61-.35-.61-.92,0-1.27Z"/>
          <path class="cls-2" d="m170.72,13.44c.61-.35,1.59-.35,2.2,0,.61.35.61.92,0,1.27-.61.35-1.59.35-2.2,0-.61-.35-.61-.92,0-1.27Z"/>
          <path class="cls-2" d="m224.38.76c.61-.35,1.59-.35,2.2,0,.61.35.61.92,0,1.27-.61.35-1.59.35-2.2,0-.61-.35-.61-.92,0-1.27Z"/>
        </g>
        <g>
          <polyline class="cls-1" points="128.83 39.24 101.93 54.77 74.35 57.61 52.53 45.01 33.19 45.79 16.43 55.46"/>
          <polyline class="cls-1" points="75.17 51.91 53.98 39.67 31.28 40.58 2.22 57.36"/>
          <path class="cls-2" d="m15.17,54.93c.61-.35,1.59-.35,2.2,0,.61.35.61.92,0,1.27-.61.35-1.59.35-2.2,0-.61-.35-.61-.92,0-1.27Z"/>
          <path class="cls-2" d="m.96,56.82c.61-.35,1.59-.35,2.2,0,.61.35.61.92,0,1.27-.61.35-1.59.35-2.2,0-.61-.35-.61-.92,0-1.27Z"/>
          <path class="cls-2" d="m30.09,40c.61-.35,1.59-.35,2.2,0,.61.35.61.92,0,1.27-.61.35-1.59.35-2.2,0-.61-.35-.61-.92,0-1.27Z"/>
          <path class="cls-2" d="m32.09,45.16c.61-.35,1.59-.35,2.2,0,.61.35.61.92,0,1.27-.61.35-1.59.35-2.2,0-.61-.35-.61-.92,0-1.27Z"/>
          <path class="cls-2" d="m73.32,56.89c.61-.35,1.59-.35,2.2,0,.61.35.61.92,0,1.27-.61.35-1.59.35-2.2,0-.61-.35-.61-.92,0-1.27Z"/>
          <path class="cls-2" d="m74.07,51.28c.61-.35,1.59-.35,2.2,0,.61.35.61.92,0,1.27-.61.35-1.59.35-2.2,0-.61-.35-.61-.92,0-1.27Z"/>
          <path class="cls-2" d="m127.73,38.6c.61-.35,1.59-.35,2.2,0s.61.92,0,1.27c-.61.35-1.59.35-2.2,0-.61-.35-.61-.92,0-1.27Z"/>
        </g>
      </g>
    </g>
  </g>
</svg>