<?xml version="1.0" encoding="UTF-8"?>
<svg id="Layer_2" data-name="Layer 2" xmlns="http://www.w3.org/2000/svg" viewBox="0 0 227.54 58.93">
  <defs>
    <style>
      .cls-1 {
        fill: none;
        stroke-width: .53px;
      }

      .cls-1, .cls-2 {
        stroke: #00c71e;
        stroke-miterlimit: 10;
      }

      .cls-3 {
        opacity: .7;
      }

      .cls-2 {
        fill: #fff;
      }
    </style>
  </defs>
  <g id="OBJECTS">
    <g class="cls-3">
      <g>
        <g>
          <polyline class="cls-1" points="53.97 35.7 80.87 20.16 108.45 17.32 130.27 29.92 149.61 29.14 166.37 19.47"/>
          <polyline class="cls-1" points="107.63 23.02 128.82 35.26 151.52 34.35 180.58 17.57"/>
          <path class="cls-2" d="m167.64,20.01c-.61.35-1.59.35-2.2,0-.61-.35-.61-.92,0-1.27.61-.35,1.59-.35,2.2,0,.61.35.61.92,0,1.27Z"/>
          <path class="cls-2" d="m181.85,18.11c-.61.35-1.59.35-2.2,0-.61-.35-.61-.92,0-1.27.61-.35,1.59-.35,2.2,0,.61.35.61.92,0,1.27Z"/>
          <path class="cls-2" d="m152.71,34.94c-.61.35-1.59.35-2.2,0-.61-.35-.61-.92,0-1.27.61-.35,1.59-.35,2.2,0,.61.35.61.92,0,1.27Z"/>
          <path class="cls-2" d="m150.71,29.78c-.61.35-1.59.35-2.2,0-.61-.35-.61-.92,0-1.27s1.59-.35,2.2,0c.61.35.61.92,0,1.27Z"/>
          <path class="cls-2" d="m109.48,18.04c-.61.35-1.59.35-2.2,0-.61-.35-.61-.92,0-1.27.61-.35,1.59-.35,2.2,0,.61.35.61.92,0,1.27Z"/>
          <path class="cls-2" d="m108.73,23.66c-.61.35-1.59.35-2.2,0-.61-.35-.61-.92,0-1.27.61-.35,1.59-.35,2.2,0,.61.35.61.92,0,1.27Z"/>
          <path class="cls-2" d="m55.07,36.33c-.61.35-1.59.35-2.2,0-.61-.35-.61-.92,0-1.27s1.59-.35,2.2,0c.61.35.61.92,0,1.27Z"/>
        </g>
        <g>
          <polyline class="cls-1" points="225.48 57.53 198.57 41.99 171 39.15 149.18 51.75 129.84 50.97 113.08 41.3"/>
          <polyline class="cls-1" points="171.82 44.85 150.62 57.09 127.93 56.18 98.87 39.4"/>
          <path class="cls-2" d="m111.81,41.84c.61.35,1.59.35,2.2,0,.61-.35.61-.92,0-1.27-.61-.35-1.59-.35-2.2,0-.61.35-.61.92,0,1.27Z"/>
          <path class="cls-2" d="m97.6,39.94c.61.35,1.59.35,2.2,0,.61-.35.61-.92,0-1.27-.61-.35-1.59-.35-2.2,0-.61.35-.61.92,0,1.27Z"/>
          <path class="cls-2" d="m126.74,56.77c.61.35,1.59.35,2.2,0,.61-.35.61-.92,0-1.27-.61-.35-1.59-.35-2.2,0-.61.35-.61.92,0,1.27Z"/>
          <path class="cls-2" d="m128.74,51.61c.61.35,1.59.35,2.2,0,.61-.35.61-.92,0-1.27-.61-.35-1.59-.35-2.2,0-.61.35-.61.92,0,1.27Z"/>
          <path class="cls-2" d="m169.97,39.87c.61.35,1.59.35,2.2,0,.61-.35.61-.92,0-1.27-.61-.35-1.59-.35-2.2,0-.61.35-.61.92,0,1.27Z"/>
          <path class="cls-2" d="m170.72,45.49c.61.35,1.59.35,2.2,0,.61-.35.61-.92,0-1.27-.61-.35-1.59-.35-2.2,0-.61.35-.61.92,0,1.27Z"/>
          <path class="cls-2" d="m224.38,58.16c.61.35,1.59.35,2.2,0s.61-.92,0-1.27c-.61-.35-1.59-.35-2.2,0-.61.35-.61.92,0,1.27Z"/>
        </g>
        <g>
          <polyline class="cls-1" points="128.83 19.69 101.93 4.15 74.35 1.31 52.53 13.91 33.19 13.14 16.43 3.46"/>
          <polyline class="cls-1" points="75.17 7.02 53.98 19.25 31.28 18.34 2.22 1.57"/>
          <path class="cls-2" d="m15.17,4c.61.35,1.59.35,2.2,0s.61-.92,0-1.27c-.61-.35-1.59-.35-2.2,0-.61.35-.61.92,0,1.27Z"/>
          <path class="cls-2" d="m.96,2.1c.61.35,1.59.35,2.2,0,.61-.35.61-.92,0-1.27-.61-.35-1.59-.35-2.2,0-.61.35-.61.92,0,1.27Z"/>
          <path class="cls-2" d="m30.09,18.93c.61.35,1.59.35,2.2,0,.61-.35.61-.92,0-1.27-.61-.35-1.59-.35-2.2,0-.61.35-.61.92,0,1.27Z"/>
          <path class="cls-2" d="m32.09,13.77c.61.35,1.59.35,2.2,0,.61-.35.61-.92,0-1.27-.61-.35-1.59-.35-2.2,0-.61.35-.61.92,0,1.27Z"/>
          <path class="cls-2" d="m73.32,2.03c.61.35,1.59.35,2.2,0,.61-.35.61-.92,0-1.27-.61-.35-1.59-.35-2.2,0-.61.35-.61.92,0,1.27Z"/>
          <path class="cls-2" d="m74.07,7.65c.61.35,1.59.35,2.2,0,.61-.35.61-.92,0-1.27-.61-.35-1.59-.35-2.2,0-.61.35-.61.92,0,1.27Z"/>
          <path class="cls-2" d="m127.73,20.32c.61.35,1.59.35,2.2,0,.61-.35.61-.92,0-1.27-.61-.35-1.59-.35-2.2,0-.61.35-.61.92,0,1.27Z"/>
        </g>
      </g>
    </g>
  </g>
</svg>